<?xml version="1.0" encoding="UTF-8" standalone="no"?><!DOCTYPE svg PUBLIC "-//W3C//DTD SVG 1.1//EN" "http://www.w3.org/Graphics/SVG/1.1/DTD/svg11.dtd"><svg width="100%" height="100%" viewBox="0 0 404 406" version="1.1" xmlns="http://www.w3.org/2000/svg" xmlns:xlink="http://www.w3.org/1999/xlink" xml:space="preserve" xmlns:serif="http://www.serif.com/" style="fill-rule:evenodd;clip-rule:evenodd;stroke-linecap:round;stroke-linejoin:round;stroke-miterlimit:1.5;"><g><path d="M201.926,192.71c71.793,25.012 119.41,124.013 115.432,202.875" style="fill:none;stroke:#39c05f;stroke-width:20.59px;"/><path d="M194.047,181.037c-0,0 -86.873,104.367 -87.302,149.693c-0.304,32.162 43.566,45.607 73.73,24.267c10.878,-7.696 -2.09,-18.474 10.472,-18.27c14.065,0.228 5.2,10.312 16.781,19.778c27.44,22.43 70.47,7.788 70.761,-22.985c0.429,-45.327 -84.442,-152.483 -84.442,-152.483Z" style="fill:#10c415;"/><path d="M198.887,188.282c0,0 76.103,-112.572 72.04,-157.716c-2.883,-32.031 -47.866,-41.002 -75.765,-16.739c-10.062,8.751 3.909,18.172 -8.611,19.231c-14.018,1.185 -6.196,-9.739 -18.656,-17.994c-29.525,-19.561 -70.89,-0.67 -68.132,29.979c4.063,45.143 99.124,143.239 99.124,143.239Z" style="fill:#10c415;"/><path d="M197.759,183.726c0,0 126.121,59.844 174.588,51.975c34.389,-5.584 41.325,-47.857 13.439,-71.35c-10.056,-8.472 -19.37,5.263 -21.277,-6.177c-2.134,-12.81 10.131,-6.6 18.279,-18.837c19.307,-28.996 -3.603,-65.389 -36.508,-60.046c-48.466,7.869 -148.521,104.435 -148.521,104.435Z" style="fill:#10c415;"/><path d="M203.037,183.769c-0,0 -119.861,-71.955 -168.861,-68.893c-34.769,2.173 -45.7,43.554 -20.175,69.674c9.205,9.42 19.785,-3.331 20.594,8.241c0.905,12.956 -10.714,5.57 -19.991,16.945c-21.983,26.952 -2.64,65.42 30.627,63.341c49,-3.063 157.806,-89.308 157.806,-89.308Z" style="fill:#10c415;"/></g></svg>